<mxfile host="app.diagrams.net" agent="Mozilla/5.0 (Windows NT 10.0; Win64; x64) AppleWebKit/537.36 (KHTML, like Gecko) Chrome/132.0.0.0 Safari/537.36" version="26.0.13">
  <diagram name="Page-1" id="FAEUG3X72LdF9P7dg9qW">
    <mxGraphModel dx="1035" dy="1655" grid="1" gridSize="10" guides="1" tooltips="1" connect="1" arrows="1" fold="1" page="1" pageScale="1" pageWidth="850" pageHeight="1100" math="0" shadow="0">
      <root>
        <mxCell id="0" />
        <mxCell id="1" parent="0" />
        <mxCell id="zVxg8B0JhvbOQi5vmPmS-1" value="&lt;font style=&quot;font-size: 14px;&quot;&gt;Guru BK&lt;/font&gt;" style="swimlane;whiteSpace=wrap;html=1;" vertex="1" parent="1">
          <mxGeometry x="50" y="-790" width="260" height="600" as="geometry" />
        </mxCell>
        <mxCell id="zVxg8B0JhvbOQi5vmPmS-37" value="" style="edgeStyle=orthogonalEdgeStyle;rounded=0;orthogonalLoop=1;jettySize=auto;html=1;" edge="1" parent="zVxg8B0JhvbOQi5vmPmS-1" source="zVxg8B0JhvbOQi5vmPmS-2" target="zVxg8B0JhvbOQi5vmPmS-5">
          <mxGeometry relative="1" as="geometry" />
        </mxCell>
        <mxCell id="zVxg8B0JhvbOQi5vmPmS-2" value="" style="ellipse;html=1;shape=startState;fillColor=#000000;strokeColor=#000000;" vertex="1" parent="zVxg8B0JhvbOQi5vmPmS-1">
          <mxGeometry x="115" y="40" width="30" height="30" as="geometry" />
        </mxCell>
        <mxCell id="zVxg8B0JhvbOQi5vmPmS-5" value="&lt;font style=&quot;font-size: 14px;&quot;&gt;Memberika selembaran soal tes RIASEC&lt;/font&gt;" style="rounded=1;whiteSpace=wrap;html=1;" vertex="1" parent="zVxg8B0JhvbOQi5vmPmS-1">
          <mxGeometry x="30" y="110" width="200" height="60" as="geometry" />
        </mxCell>
        <mxCell id="zVxg8B0JhvbOQi5vmPmS-44" value="" style="edgeStyle=orthogonalEdgeStyle;rounded=0;orthogonalLoop=1;jettySize=auto;html=1;" edge="1" parent="zVxg8B0JhvbOQi5vmPmS-1" source="zVxg8B0JhvbOQi5vmPmS-39" target="zVxg8B0JhvbOQi5vmPmS-43">
          <mxGeometry relative="1" as="geometry" />
        </mxCell>
        <mxCell id="zVxg8B0JhvbOQi5vmPmS-39" value="&lt;span style=&quot;font-size: 14px;&quot;&gt;Memerika jawaban siswa&lt;/span&gt;" style="rounded=1;whiteSpace=wrap;html=1;" vertex="1" parent="zVxg8B0JhvbOQi5vmPmS-1">
          <mxGeometry x="30" y="220" width="200" height="60" as="geometry" />
        </mxCell>
        <mxCell id="zVxg8B0JhvbOQi5vmPmS-46" value="" style="edgeStyle=orthogonalEdgeStyle;rounded=0;orthogonalLoop=1;jettySize=auto;html=1;" edge="1" parent="zVxg8B0JhvbOQi5vmPmS-1" source="zVxg8B0JhvbOQi5vmPmS-43" target="zVxg8B0JhvbOQi5vmPmS-45">
          <mxGeometry relative="1" as="geometry" />
        </mxCell>
        <mxCell id="zVxg8B0JhvbOQi5vmPmS-43" value="&lt;span style=&quot;font-size: 14px;&quot;&gt;Melakukan proses identifikasi minat bakat sesuai metode RIASEC&lt;/span&gt;" style="rounded=1;whiteSpace=wrap;html=1;" vertex="1" parent="zVxg8B0JhvbOQi5vmPmS-1">
          <mxGeometry x="30" y="330" width="200" height="60" as="geometry" />
        </mxCell>
        <mxCell id="zVxg8B0JhvbOQi5vmPmS-45" value="&lt;span style=&quot;font-size: 14px;&quot;&gt;Memberikan hasil tes RIASEC&lt;/span&gt;" style="rounded=1;whiteSpace=wrap;html=1;" vertex="1" parent="zVxg8B0JhvbOQi5vmPmS-1">
          <mxGeometry x="30" y="430" width="200" height="60" as="geometry" />
        </mxCell>
        <mxCell id="zVxg8B0JhvbOQi5vmPmS-7" value="&lt;font style=&quot;font-size: 14px;&quot;&gt;Siswa&lt;/font&gt;" style="swimlane;whiteSpace=wrap;html=1;" vertex="1" parent="1">
          <mxGeometry x="310" y="-790" width="280" height="600" as="geometry" />
        </mxCell>
        <mxCell id="zVxg8B0JhvbOQi5vmPmS-19" value="" style="ellipse;html=1;shape=endState;fillColor=#000000;strokeColor=#000000;" vertex="1" parent="zVxg8B0JhvbOQi5vmPmS-7">
          <mxGeometry x="125" y="530" width="30" height="30" as="geometry" />
        </mxCell>
        <mxCell id="zVxg8B0JhvbOQi5vmPmS-41" value="" style="edgeStyle=orthogonalEdgeStyle;rounded=0;orthogonalLoop=1;jettySize=auto;html=1;" edge="1" parent="zVxg8B0JhvbOQi5vmPmS-7" source="zVxg8B0JhvbOQi5vmPmS-4" target="zVxg8B0JhvbOQi5vmPmS-40">
          <mxGeometry relative="1" as="geometry" />
        </mxCell>
        <mxCell id="zVxg8B0JhvbOQi5vmPmS-4" value="&lt;span style=&quot;font-size: 14px;&quot;&gt;Mengerjakan soal tes RIASEC&lt;/span&gt;" style="rounded=1;whiteSpace=wrap;html=1;" vertex="1" parent="zVxg8B0JhvbOQi5vmPmS-7">
          <mxGeometry x="60" y="110" width="160" height="60" as="geometry" />
        </mxCell>
        <mxCell id="zVxg8B0JhvbOQi5vmPmS-40" value="&lt;span style=&quot;font-size: 14px;&quot;&gt;Mengumpulkan jawaban tes RIASEC&lt;/span&gt;" style="rounded=1;whiteSpace=wrap;html=1;" vertex="1" parent="zVxg8B0JhvbOQi5vmPmS-7">
          <mxGeometry x="60" y="220" width="160" height="60" as="geometry" />
        </mxCell>
        <mxCell id="zVxg8B0JhvbOQi5vmPmS-49" value="" style="edgeStyle=orthogonalEdgeStyle;rounded=0;orthogonalLoop=1;jettySize=auto;html=1;" edge="1" parent="zVxg8B0JhvbOQi5vmPmS-7" source="zVxg8B0JhvbOQi5vmPmS-47" target="zVxg8B0JhvbOQi5vmPmS-19">
          <mxGeometry relative="1" as="geometry" />
        </mxCell>
        <mxCell id="zVxg8B0JhvbOQi5vmPmS-47" value="&lt;span style=&quot;font-size: 14px;&quot;&gt;Melihat Hasil Tes RIASEC&lt;/span&gt;" style="rounded=1;whiteSpace=wrap;html=1;" vertex="1" parent="zVxg8B0JhvbOQi5vmPmS-7">
          <mxGeometry x="40" y="430" width="200" height="60" as="geometry" />
        </mxCell>
        <mxCell id="zVxg8B0JhvbOQi5vmPmS-38" value="" style="edgeStyle=orthogonalEdgeStyle;rounded=0;orthogonalLoop=1;jettySize=auto;html=1;" edge="1" parent="1" source="zVxg8B0JhvbOQi5vmPmS-5" target="zVxg8B0JhvbOQi5vmPmS-4">
          <mxGeometry relative="1" as="geometry" />
        </mxCell>
        <mxCell id="zVxg8B0JhvbOQi5vmPmS-42" value="" style="edgeStyle=orthogonalEdgeStyle;rounded=0;orthogonalLoop=1;jettySize=auto;html=1;" edge="1" parent="1" source="zVxg8B0JhvbOQi5vmPmS-40" target="zVxg8B0JhvbOQi5vmPmS-39">
          <mxGeometry relative="1" as="geometry" />
        </mxCell>
        <mxCell id="zVxg8B0JhvbOQi5vmPmS-48" value="" style="edgeStyle=orthogonalEdgeStyle;rounded=0;orthogonalLoop=1;jettySize=auto;html=1;" edge="1" parent="1" source="zVxg8B0JhvbOQi5vmPmS-45" target="zVxg8B0JhvbOQi5vmPmS-47">
          <mxGeometry relative="1" as="geometry" />
        </mxCell>
      </root>
    </mxGraphModel>
  </diagram>
</mxfile>
